<?xml version="1.0" standalone="no"?>
<!DOCTYPE svg PUBLIC "-//W3C//DTD SVG 20010904//EN"
 "http://www.w3.org/TR/2001/REC-SVG-20010904/DTD/svg10.dtd">
<svg version="1.0" xmlns="http://www.w3.org/2000/svg"
 width="251.000000pt" height="213.000000pt" viewBox="0 0 251.000000 213.000000"
 preserveAspectRatio="xMidYMid meet">

<g transform="translate(0.000000,213.000000) scale(0.100000,-0.100000)"
fill="#000000" stroke="none">
<path d="M1060 1895 c-25 -13 -40 -24 -35 -24 6 0 30 11 55 24 25 13 41 24 35
24 -5 0 -30 -11 -55 -24z"/>
<path d="M691 1861 c-7 -5 -10 -14 -7 -20 13 -20 -4 -52 -23 -46 -10 3 -24 -1
-31 -10 -8 -10 -9 -15 -1 -15 19 0 12 -17 -19 -52 -16 -18 -30 -40 -30 -49 0
-9 -13 -40 -29 -70 -27 -51 -49 -119 -38 -119 3 0 22 33 42 73 21 39 46 84 56
99 11 14 19 30 19 35 0 5 12 25 26 44 57 76 79 157 35 130z"/>
<path d="M1279 1856 c-31 -7 -71 -22 -90 -33 -19 -11 -45 -24 -59 -28 -55 -17
-271 -208 -270 -240 0 -5 25 17 55 51 79 88 147 137 266 189 182 80 340 85
495 14 100 -46 166 -100 199 -161 28 -54 58 -97 130 -191 99 -131 133 -392 64
-503 -31 -50 -41 -33 -34 54 8 90 -6 226 -30 297 -40 115 -183 283 -288 335
-71 36 -207 54 -297 41 l-55 -9 80 -1 c115 -3 175 -15 194 -38 9 -12 33 -26
54 -33 20 -6 37 -18 37 -26 0 -8 16 -22 35 -30 23 -9 33 -19 29 -29 -4 -8 -10
-13 -14 -10 -5 3 -14 -3 -19 -12 -10 -17 -13 -16 -32 10 -11 15 -30 27 -41 27
-10 0 -26 7 -34 15 -42 41 -268 57 -331 22 -18 -9 -48 -24 -65 -34 -18 -9 -50
-31 -71 -50 -59 -53 -114 -39 -101 25 7 32 79 102 106 102 20 0 84 43 71 47
-19 7 -151 -67 -178 -99 -40 -47 -43 -77 -11 -105 41 -35 90 -29 142 19 20 18
199 78 233 78 9 0 59 -14 112 -30 74 -24 109 -42 154 -78 71 -57 89 -86 115
-187 48 -190 10 -346 -116 -469 -67 -66 -126 -98 -229 -127 -206 -58 -432 2
-547 145 -111 138 -165 298 -153 451 3 44 8 94 10 110 5 28 3 27 -14 -10 -28
-58 -29 -229 -1 -308 11 -31 20 -64 20 -74 0 -10 14 -38 30 -62 17 -24 30 -50
30 -57 0 -8 11 -21 24 -30 14 -8 26 -25 28 -37 2 -12 12 -26 24 -31 24 -11 49
-76 28 -76 -29 0 -66 22 -101 61 -21 22 -48 52 -60 65 -13 14 -30 39 -39 57
-9 18 -22 39 -29 47 -7 8 -25 51 -40 95 -23 67 -29 102 -33 210 -4 124 -3 134
27 232 18 56 39 107 47 113 7 7 14 18 14 24 0 13 68 106 108 148 14 15 23 30
20 33 -13 13 -121 -127 -167 -215 -58 -114 -71 -167 -71 -305 0 -215 67 -414
183 -541 61 -66 207 -193 246 -214 30 -16 330 -33 419 -24 35 3 96 17 135 30
39 13 84 24 101 24 17 0 36 4 42 8 7 4 33 47 58 96 49 96 89 146 117 146 26 0
49 -39 49 -83 0 -31 -8 -46 -46 -87 -129 -138 -327 -237 -523 -260 -110 -14
-170 -8 -300 27 -149 40 -272 113 -396 238 -85 85 -125 147 -185 287 -19 43
-35 77 -36 75 -3 -3 22 -106 31 -129 4 -10 11 -18 15 -18 4 0 11 -16 14 -35 4
-19 17 -47 29 -62 13 -15 28 -40 35 -55 6 -16 18 -28 26 -28 8 0 20 -16 26
-35 6 -20 23 -49 37 -65 15 -19 23 -37 19 -47 -4 -9 -1 -20 6 -25 10 -6 8 -8
-4 -8 -10 0 -18 6 -18 14 0 8 -16 23 -35 35 -19 11 -35 24 -35 29 0 5 -11 14
-25 20 -14 6 -25 18 -25 26 0 8 -10 23 -22 33 -28 23 -83 102 -93 134 -4 13
-18 40 -31 59 -13 20 -28 60 -34 90 -6 30 -14 56 -19 59 -4 4 -13 20 -19 36
l-10 30 -1 -29 c-2 -80 76 -266 164 -391 90 -128 311 -315 428 -364 171 -71
388 -97 552 -67 274 51 455 149 643 351 75 81 120 161 148 270 27 99 27 417 0
520 -40 156 -137 306 -272 420 -32 27 -60 53 -62 57 -5 11 -32 10 -32 -1 0 -5
6 -14 14 -21 8 -6 16 -21 18 -33 2 -13 12 -23 27 -27 26 -6 48 -55 30 -66 -5
-3 -10 -3 -10 0 -1 3 -2 9 -3 14 -3 18 -19 32 -35 32 -10 0 -23 12 -30 26 -6
15 -14 24 -18 21 -7 -7 -61 19 -88 43 -11 10 -38 21 -60 25 -22 4 -47 13 -56
21 -10 9 -41 22 -70 30 -67 17 -300 17 -380 0z m536 -426 c3 -5 -1 -10 -9 -10
-9 0 -16 5 -16 10 0 6 4 10 9 10 6 0 13 -4 16 -10z"/>
<path d="M979 1843 c-13 -17 -13 -17 6 -3 11 8 22 16 24 17 2 2 0 3 -6 3 -6 0
-17 -8 -24 -17z"/>
<path d="M909 1789 c-23 -19 -23 -20 -2 -10 12 6 25 16 28 21 10 16 -1 12 -26
-11z"/>
<path d="M572 1738 c-16 -16 -15 -28 3 -28 8 0 15 2 15 4 0 2 3 11 6 20 7 19
-7 21 -24 4z"/>
<path d="M525 1680 c-16 -17 -16 -20 -3 -15 9 4 19 13 22 21 7 19 2 18 -19 -6z"/>
<path d="M465 1620 c-3 -5 -1 -10 4 -10 6 0 11 5 11 10 0 6 -2 10 -4 10 -3 0
-8 -4 -11 -10z"/>
<path d="M405 1544 c-17 -27 -45 -99 -45 -118 0 -17 44 65 57 107 13 44 11 46
-12 11z"/>
<path d="M817 1493 c-4 -3 -7 -13 -7 -22 1 -13 3 -13 11 2 11 19 8 33 -4 20z"/>
<path d="M363 1365 c0 -22 2 -30 4 -17 2 12 2 30 0 40 -3 9 -5 -1 -4 -23z"/>
<path d="M364 1180 c0 -80 2 -112 3 -72 2 39 2 105 0 145 -1 39 -3 7 -3 -73z"/>
</g>
</svg>
