<?xml version="1.0" standalone="no"?>
<!DOCTYPE svg PUBLIC "-//W3C//DTD SVG 20010904//EN"
 "http://www.w3.org/TR/2001/REC-SVG-20010904/DTD/svg10.dtd">
<svg version="1.0" xmlns="http://www.w3.org/2000/svg"
 width="195.000000pt" height="58.000000pt" viewBox="0 0 195.000000 58.000000"
 preserveAspectRatio="xMidYMid meet">

<g transform="translate(0.000000,58.000000) scale(0.100000,-0.100000)"
fill="#000000" stroke="none">
<path d="M236 475 c3 -7 -3 -15 -13 -18 -11 -3 -7 -5 12 -6 17 -1 38 -8 48
-15 19 -15 24 -41 5 -30 -10 6 -10 4 0 -7 20 -22 15 -93 -9 -114 -30 -28 -118
-25 -155 5 -16 14 -16 13 -6 -6 18 -34 58 -54 109 -55 48 -1 48 -1 13 -9 -19
-5 -53 -5 -75 0 -22 5 -41 7 -44 4 -2 -2 2 -4 9 -4 7 0 10 -3 7 -7 -14 -13 68
-34 112 -27 63 8 130 73 138 131 3 23 3 52 0 66 -7 24 -41 69 -51 67 -4 0 -16
6 -29 14 -32 21 -77 28 -71 11z"/>
<path d="M1808 463 c7 -3 16 -2 19 1 4 3 -2 6 -13 5 -11 0 -14 -3 -6 -6z"/>
<path d="M1796 435 c4 -8 10 -12 15 -9 11 6 2 24 -11 24 -5 0 -7 -7 -4 -15z"/>
<path d="M248 423 c7 -3 16 -2 19 1 4 3 -2 6 -13 5 -11 0 -14 -3 -6 -6z"/>
<path d="M1800 401 c0 -11 26 -22 34 -14 12 12 5 23 -14 23 -11 0 -20 -4 -20
-9z"/>
<path d="M1830 370 c-23 -7 -23 -8 -3 -9 12 -1 25 4 28 9 3 6 5 10 3 9 -2 -1
-14 -5 -28 -9z"/>
</g>
</svg>
